<?xml version="1.0" encoding="UTF-8" standalone="no"?><svg xmlns="http://www.w3.org/2000/svg" xmlns:xlink="http://www.w3.org/1999/xlink" fill="#fefefe" height="400.8" preserveAspectRatio="xMidYMid meet" version="1" viewBox="-0.8 0.0 400.8 400.8" width="400.8" zoomAndPan="magnify"><g id="change1_1"><path d="M212.86,202.29c0.61,5.94-1.04,12.13-5.1,17.11l-0.44,0.49c-2.51,2.53-6.59,2.53-9.11,0.02c-2.45-2.45-2.51-6.4-0.18-8.93 c1.63-2.17,2.3-4.83,2.03-7.38c-0.26-2.56-1.45-5.02-3.49-6.81l-7.87-6.42c-2.23-1.82-5.02-2.55-7.7-2.28 c-2.68,0.28-5.26,1.56-7.07,3.79c-1.81,2.23-2.55,5.02-2.27,7.7c0.27,2.68,1.56,5.25,3.79,7.07l7.57,6.16 c4.99,4.06,7.86,9.78,8.47,15.73c0.61,5.95-1.04,12.13-5.1,17.12c-4.06,4.99-9.78,7.87-15.73,8.48c-5.46,0.56-11.12-0.81-15.87-4.18 l-4.94,6.07c-2.24,2.75-6.29,3.17-9.04,0.93s-3.17-6.29-0.93-9.04l4.94-6.08c-4.26-3.97-6.77-9.23-7.32-14.69 c-0.61-5.94,1.04-12.13,5.1-17.12l0.44-0.49c2.51-2.53,6.59-2.53,9.11-0.02c2.45,2.45,2.51,6.4,0.19,8.92 c-1.64,2.18-2.3,4.83-2.04,7.39c0.26,2.56,1.45,5.02,3.49,6.81l7.87,6.42c2.23,1.82,5.01,2.55,7.7,2.28 c2.68-0.27,5.26-1.56,7.07-3.79s2.55-5.01,2.27-7.7c-0.27-2.68-1.56-5.25-3.79-7.07l0,0l-7.57-6.16c-4.99-4.06-7.86-9.78-8.47-15.73 c-0.61-5.95,1.04-12.13,5.1-17.12c4.06-4.99,9.78-7.87,15.73-8.48c5.46-0.56,11.12,0.81,15.87,4.18l4.94-6.07 c2.24-2.75,6.29-3.17,9.04-0.93c2.75,2.24,3.17,6.29,0.93,9.04l-4.95,6.08C209.8,191.56,212.3,196.82,212.86,202.29z M166.95,297.55 l-71.2-57.93c-2.75-2.24-6.8-1.82-9.04,0.93c-2.24,2.75-1.82,6.8,0.93,9.04l71.2,57.93c2.75,2.24,6.8,1.82,9.04-0.93 S169.7,299.79,166.95,297.55z M148.24,320.54l-71.2-57.93c-2.75-2.24-6.8-1.82-9.04,0.93s-1.82,6.8,0.93,9.04l71.2,57.93 c2.75,2.24,6.8,1.82,9.04-0.93C151.41,326.83,150.99,322.78,148.24,320.54z M400,93.42c0,25.79-10.46,49.14-27.36,66.04 c-16.89,16.89-40.25,27.34-66.07,27.35c-3.52,0-6.96-0.16-10.32-0.5c-1.12-0.11-2.22-0.25-3.33-0.4l-4.62,38.74 c-0.17,1.42-0.78,2.67-1.68,3.63l0,0L148.84,397.63c-2.24,2.75-6.29,3.17-9.04,0.93L2.37,286.73c-2.75-2.24-3.17-6.29-0.93-9.04 L139.5,108.02c0.8-0.98,1.83-1.67,2.95-2.04l71.41-23.95c2.58-21.24,12.29-40.29,26.67-54.67C257.43,10.46,280.78,0,306.58,0 c25.8,0,49.15,10.46,66.06,27.36C389.54,44.27,400,67.63,400,93.42z M275.74,221.32l10.43-87.34l-54.5-44.35l-5.56,1.87 c-0.02,0.64-0.05,1.29-0.05,1.93c0,9.38,1.65,18.31,4.61,26.6c0.75-0.14,1.51-0.24,2.28-0.3l0.04,0c6.2-0.49,12.03,1.57,16.44,5.32 c4.43,3.76,7.42,9.21,7.93,15.45l0,0.03l0,0c0.5,6.2-1.57,12.04-5.32,16.45c-3.76,4.43-9.22,7.43-15.46,7.93 c-6.21,0.51-12.06-1.57-16.48-5.32c-4.43-3.76-7.43-9.22-7.93-15.46c-0.5-6.21,1.57-12.06,5.32-16.48c0.52-0.61,1.07-1.19,1.65-1.74 c-3.56-9.42-5.67-19.52-5.95-30.09l-64.9,21.76L15.47,280.81l127.46,103.71v0L275.74,221.32z M225.01,143.12 c0.22,2.69,1.5,5.03,3.4,6.64c1.54,1.31,3.51,2.13,5.63,2.29c-3.18-4.01-6.04-8.27-8.59-12.75 C225.07,140.49,224.9,141.78,225.01,143.12z M244.51,141.73l-0.03-0.43c-0.26-2.6-1.53-4.86-3.38-6.43 c-1.29-1.1-2.88-1.85-4.62-2.16c2.3,4.08,4.91,7.97,7.83,11.61C244.49,143.48,244.56,142.61,244.51,141.73z M387.1,93.42 c0-22.24-9.01-42.37-23.58-56.94c-14.57-14.57-34.7-23.58-56.94-23.58c-22.24,0-42.37,9.02-56.94,23.58 c-10.98,10.97-18.79,25.11-21.99,40.92l3.28-1.1c2.21-0.74,4.54-0.21,6.2,1.19l59.91,48.75c1.77,1.44,2.57,3.63,2.33,5.74 l-4.91,41.17c1.02,0.14,2.04,0.27,3.06,0.37c3,0.3,6.03,0.45,9.06,0.45c22.22-0.01,42.36-9.04,56.95-23.62 C378.09,135.78,387.1,115.66,387.1,93.42z"/></g></svg>