<?xml version="1.0" encoding="UTF-8"?><svg xmlns="http://www.w3.org/2000/svg" xmlns:xlink="http://www.w3.org/1999/xlink" height="126.0" preserveAspectRatio="xMidYMid meet" version="1.0" viewBox="-0.1 0.0 126.1 126.0" width="126.1" zoomAndPan="magnify"><g><g><g><g><g><g id="change1_1"><path d="M106.65,82.97c0,3.85-1.78,7.26-4.8,7.26c2.98,0,4.8,3.87,4.8,7.28c0-3.41,1.82-7.28,4.8-7.28 C108.43,90.23,106.65,86.82,106.65,82.97z" fill="#9c9d9c"/></g><g id="change1_3"><path d="M24,44.05c0,3.85-1.78,7.25-4.8,7.25c2.98,0,4.8,3.88,4.8,7.29c0-3.41,1.82-7.29,4.8-7.29 C25.78,51.3,24,47.9,24,44.05z" fill="#9c9d9c"/></g><g id="change1_4"><path d="M61,21.24c0-3.41,1.82-7.28,4.8-7.28c-3.02,0-4.8-3.41-4.8-7.26c0,3.85-1.78,7.26-4.8,7.26 C59.18,13.96,61,17.83,61,21.24z" fill="#9c9d9c"/></g><g id="change1_2"><path d="M125,13.8V1h-23.9h-7.11c-3.14,0-5.69,2.55-5.69,5.69v7.11v17.38 c-3.45-1.32-6.29-1.37-7.78,0.15L53.99,58.26l-8.54,8.66c-2.81,2.86,1.76,11.94,10.23,20.28c8.46,8.34,17.61,12.78,20.43,9.92 l8.53-8.66l26.53-26.93c3.25-3.3-0.98-12.73-9.45-21.07c-0.21-0.2-0.41-0.4-0.62-0.6V13.8H125z" fill="#9c9d9c"/></g></g><g id="change2_1"><path d="M94.77,37.9c1.7,0,3.07,1.37,3.07,3.07c0,1.7-1.37,3.08-3.07,3.08c-1.7,0-3.07-1.38-3.07-3.08 C91.7,39.27,93.07,37.9,94.77,37.9z" fill="#655f68"/></g><g id="change3_2"><path d="M106.65,82.97c0,3.85,1.78,7.26,4.8,7.26c-2.98,0-4.8,3.87-4.8,7.28c0-3.41-1.82-7.28-4.8-7.28 C104.87,90.23,106.65,86.82,106.65,82.97z" fill="#f9b132"/></g><g id="change3_3"><path d="M24,44.05c0,3.85,1.78,7.25,4.8,7.25c-2.98,0-4.8,3.88-4.8,7.29c0-3.41-1.82-7.29-4.8-7.29 C22.22,51.3,24,47.9,24,44.05z" fill="#f9b132"/></g><g id="change3_1"><path d="M61,6.7c0,3.85,1.78,7.26,4.8,7.26c-2.98,0-4.8,3.87-4.8,7.28c0-3.41-1.82-7.28-4.8-7.28 C59.22,13.96,61,10.55,61,6.7z" fill="#f9b132"/></g><g id="change3_4"><path d="M76.91,94.13c-4.14-0.32-10.99-4.41-17.45-10.77S48.81,70.21,48.43,66.07 c4.15,0.31,11,4.41,17.45,10.77C72.35,83.2,76.54,90,76.91,94.13z" fill="#f9b132"/></g></g><g><g id="change4_1"><path d="M82.3,30.36c-0.71,0.17-1.31,0.5-1.78,0.97L53.99,58.26c2.82-2.86,11.96,1.58,20.43,9.92 c3.28,3.23,5.98,6.58,7.88,9.63c1.866,2.979,2.977,5.672,3.148,7.711C90.116,67.636,89.287,49.273,82.3,30.36z" fill="#d2d2d1"/></g><g id="change5_1"><path d="M101.72,40.46c-0.21-0.2-0.41-0.4-0.62-0.6v1.33c0,3.61-2.97,6.51-6.6,6.4 c-3.5-0.1-6.2-3.16-6.2-6.66v-9.75c-2.37-0.91-4.45-1.21-6-0.82c6.987,18.913,7.816,37.276,3.148,55.161 c0.105,1.26-0.147,2.271-0.808,2.939l26.53-26.93C114.42,58.23,110.19,48.8,101.72,40.46z" fill="#b6b6b7"/></g></g></g></g><g fill="#3a322b" id="change6_1"><path d="M125,0H93.991c-3.69,0-6.693,3.002-6.693,6.693v23.09c-3.36-1.021-5.935-0.74-7.495,0.842 c0,0-0.001,0.001-0.001,0.001L44.741,66.218c-3.771,3.828,2.459,14.034,10.235,21.693c6.126,6.036,13.819,11.088,18.651,11.088 c1.301,0,2.395-0.366,3.194-1.178l35.062-35.593c3.688-3.745-0.468-13.619-9.462-22.479c-0.106-0.105-0.214-0.207-0.32-0.311 V14.804H125c0.552,0,1-0.448,1-1V1C126,0.448,125.552,0,125,0z M73.716,68.89c4.019,3.958,7.269,8.195,9.153,11.932 c1.673,3.318,2.07,5.91,1.062,6.933c0,0,0,0.001-0.001,0.001l-6.026,6.117c-0.538-4.844-5.493-12.009-11.317-17.746v-0.001 c-4.17-4.107-8.644-7.427-12.598-9.347c-2.046-0.994-3.829-1.546-5.331-1.686l6.043-6.135 C56.784,56.848,65.104,60.405,73.716,68.89z M75.708,92.918c-4.071-0.955-10.091-4.896-15.546-10.269 c-5.436-5.356-9.458-11.292-10.491-15.348c1.014,0.244,2.165,0.656,3.444,1.277c3.763,1.827,8.049,5.014,12.068,8.973v-0.001 C71.163,83.442,74.76,89.224,75.708,92.918z M56.38,86.486c-8.613-8.483-12.295-16.751-10.214-18.864 c0.316-0.321,0.797-0.499,1.399-0.551c0.864,4.508,5.141,11.042,11.192,17.003c6.053,5.964,12.656,10.145,17.177,10.938 c-0.05,0.595-0.218,1.081-0.538,1.406C73.315,98.526,64.994,94.973,56.38,86.486z M110.459,60.825L86.421,85.226 c-0.163-1.5-0.742-3.274-1.766-5.305c-1.979-3.926-5.365-8.35-9.535-12.456c-5.824-5.737-13.062-10.585-17.914-11.05l24.02-24.384 c0,0,0.001-0.001,0.001-0.001c1.051-1.066,3.249-1.101,6.07-0.137v9.034c0,4.109,3.219,7.548,7.175,7.667 c0.077,0.002,0.153,0.003,0.229,0.003c1.936,0,3.758-0.737,5.151-2.089c1.203-1.168,1.95-2.669,2.171-4.3 C109.873,50.353,112.807,58.441,110.459,60.825z M124,12.804h-22.898c-0.552,0-1,0.448-1,1v27.391 c0,1.474-0.583,2.851-1.641,3.877c-1.057,1.026-2.448,1.56-3.928,1.522c-2.886-0.086-5.235-2.629-5.235-5.667v-9.778 c0-0.001,0-0.002,0-0.003V6.693C89.298,4.105,91.403,2,93.991,2H124V12.804z" fill="inherit"/><path d="M90.695,40.972c0,2.247,1.828,4.075,4.075,4.075s4.075-1.828,4.075-4.075 c0-2.247-1.828-4.075-4.075-4.075S90.695,38.726,90.695,40.972z M94.77,38.897c1.144,0,2.075,0.931,2.075,2.075 s-0.931,2.075-2.075,2.075s-2.075-0.931-2.075-2.075S93.626,38.897,94.77,38.897z" fill="inherit"/><path d="M41.469,75.454L0.581,94.328c-0.501,0.231-0.72,0.826-0.489,1.327 c0.168,0.366,0.53,0.581,0.908,0.581c0.141,0,0.283-0.029,0.418-0.092l40.888-18.874c0.501-0.231,0.72-0.826,0.489-1.327 C42.565,75.441,41.97,75.224,41.469,75.454z" fill="inherit"/><path d="M63.922,100.396c-0.51-0.213-1.096,0.024-1.31,0.534l-9.973,23.683 c-0.214,0.509,0.024,1.095,0.533,1.31C53.3,125.975,53.431,126,53.561,126c0.39,0,0.761-0.229,0.922-0.612l9.973-23.683 C64.669,101.196,64.431,100.61,63.922,100.396z" fill="inherit"/><path d="M111.451,89.226c-2.496,0-3.802-3.148-3.802-6.258c0-0.553-0.448-1-1-1s-1,0.447-1,1 c0,3.109-1.306,6.258-3.802,6.258c-0.552,0-1,0.447-1,1s0.448,1,1,1c2.241,0,3.802,3.31,3.802,6.28c0,0.553,0.448,1,1,1 s1-0.447,1-1c0-2.971,1.562-6.28,3.802-6.28c0.552,0,1-0.447,1-1S112.003,89.226,111.451,89.226z M106.649,92.893 c-0.491-1.055-1.151-1.971-1.959-2.624c0.794-0.592,1.461-1.438,1.959-2.478c0.499,1.04,1.166,1.886,1.959,2.478 C107.8,90.922,107.14,91.838,106.649,92.893z" fill="inherit"/><path d="M19.2,52.305c2.241,0,3.802,3.31,3.802,6.281c0,0.552,0.448,1,1,1s1-0.448,1-1 c0-2.971,1.562-6.281,3.802-6.281c0.552,0,1-0.448,1-1s-0.448-1-1-1c-2.496,0-3.802-3.148-3.802-6.257c0-0.552-0.448-1-1-1 s-1,0.448-1,1c0,3.109-1.306,6.257-3.802,6.257c-0.552,0-1,0.448-1,1S18.648,52.305,19.2,52.305z M24.002,48.87 c0.499,1.04,1.166,1.886,1.959,2.478c-0.808,0.653-1.469,1.57-1.959,2.625c-0.491-1.055-1.151-1.971-1.959-2.625 C22.837,50.756,23.504,49.91,24.002,48.87z" fill="inherit"/><path d="M56.2,14.956c2.241,0,3.802,3.31,3.802,6.281c0,0.552,0.448,1,1,1s1-0.448,1-1 c0-2.971,1.562-6.281,3.802-6.281c0.552,0,1-0.448,1-1s-0.448-1-1-1c-2.496,0-3.802-3.148-3.802-6.258c0-0.552-0.448-1-1-1 s-1,0.448-1,1c0,3.11-1.306,6.258-3.802,6.258c-0.552,0-1,0.448-1,1S55.648,14.956,56.2,14.956z M61.002,11.521 c0.499,1.04,1.166,1.886,1.959,2.478c-0.808,0.653-1.469,1.57-1.959,2.625c-0.491-1.055-1.151-1.971-1.959-2.625 C59.837,13.407,60.504,12.562,61.002,11.521z" fill="inherit"/></g></g></svg>