<?xml version="1.0" encoding="UTF-8" standalone="no"?><svg xmlns="http://www.w3.org/2000/svg" xmlns:xlink="http://www.w3.org/1999/xlink" clip-rule="evenodd" fill="#ffffff" fill-rule="evenodd" height="20" preserveAspectRatio="xMidYMid meet" stroke-linejoin="round" stroke-miterlimit="2" version="1" viewBox="1.0 6.0 30.0 20.0" width="30" zoomAndPan="magnify"><g id="change1_1"><path d="M1,19l0,6c0,0.552 0.448,1 1,1l28,0c0.552,0 1,-0.448 1,-1l0,-6c0,-0.552 -0.448,-1 -1,-1c-0.552,-0 -1,0.448 -1,1l0,5c0,-0 -26,-0 -26,-0c0,-0 0,-5 0,-5c-0,-0.552 -0.448,-1 -1,-1c-0.552,0 -1,0.448 -1,1Zm14,-2.284l-1.322,-1.22c-0.405,-0.374 -1.038,-0.349 -1.413,0.056c-0.374,0.406 -0.349,1.039 0.057,1.414l3,2.769c0.383,0.353 0.973,0.353 1.356,-0l3,-2.769c0.406,-0.375 0.431,-1.008 0.057,-1.414c-0.375,-0.405 -1.008,-0.43 -1.413,-0.056l-1.322,1.22l-0,-9.716c0,-0.552 -0.448,-1 -1,-1c-0.552,-0 -1,0.448 -1,1l-0,9.716Z"/></g></svg>